<svg width="300" height="194" viewBox="0 0 300 194" fill="none" xmlns="http://www.w3.org/2000/svg">
<g clip-path="url(#clip0_2_2)">
<path d="M15 3.80004C15 6.30004 14.3 8.30004 13.3 9.20004C9.9 12.1 4.8 14.2 2.4 13.6C-0.700003 12.8 -0.700003 14.7 2.4 16.1C4.4 17.1 5.8 16.7 11.4 13.5L18 9.80004V4.90004C18 1.20004 17.6 4.21873e-05 16.5 4.21873e-05C15.4 4.21873e-05 15 1.10004 15 3.80004Z" fill="white"/>
<path d="M20 5.00001V9.90001L26.6 13.8L33.3 17.7L39.6 14.1L45.9 10.5L46 5.20001C46 2.40001 45.6 1.19433e-05 45 1.19433e-05C44.5 1.19433e-05 44 1.40001 44 3.10001C44 7.50001 42.5 9.70001 37.9 12.1C34.4 13.9 33.4 14 30.8 12.9C25.1 10.6 23 8.20001 23 3.90001C23 1.10001 22.6 1.19433e-05 21.5 1.19433e-05C20.4 1.19433e-05 20 1.20001 20 5.00001Z" fill="white"/>
<path d="M48 5.50002V10.9L41 15L34 19.1V26.8V34.6L26.8 38.7L19.5 42.9V51.1V59.4L12.2 63.7C6.4 67.1 4.5 67.8 3 67C0.5 65.7 0 65.7 0 67.4C0 70.4 5.1 70.2 11.5 67C20.5 62.5 21.4 61.2 22 52.2L22.5 44.5L27.5 41.3C36.1 35.7 36 35.8 36 28V21L40.6 18.2C49.7 12.8 50 12.5 50 5.90002C50 2.60002 49.6 1.72745e-05 49 1.72745e-05C48.5 1.72745e-05 48 2.50002 48 5.50002Z" fill="white"/>
<path d="M84.8 3.2C84.6 5.9 83.5 7.1 78.8 10.3C75.6 12.3 73 14.6 72.9 15.3C72.5 24.6 73 30.3 74.4 31.9C76.4 34.1 84.1 38 86.5 38C87.5 38 90.7 36.8 93.7 35.3L99.1 32.5L104.4 35.4C110.7 38.8 114.2 38.5 120.5 34.2L124.5 31.4L124.8 22.7L125.1 14L120.3 11C113.5 6.8 113 6.3 113 3C113 1.3 112.6 -5.66244e-07 112 -5.66244e-07C111.5 -5.66244e-07 111 1.7 111 3.7C111 7.3 110.7 7.7 105 10.8L98.9 14.1L93 10.8C87.3 7.7 87 7.3 87 3.8C87 -0.800001 85.2 -1.3 84.8 3.2ZM92.5 12.1L98 15.2V22.5C98 30.4 98.1 30.2 90.9 34.3L86.4 36.9L80.2 33.2L74 29.6V22.5V15.5L79.8 12.3C82.9 10.5 85.8 9 86.3 9C86.7 9 89.5 10.4 92.5 12.1ZM118 12.3L123.5 15.6L123.8 22.3L124.1 29L117.8 32.9L111.6 36.9L105.6 33.5L99.5 30.1V22.8V15.5L105 12.3C108 10.5 110.9 9 111.5 9C112 9 115 10.5 118 12.3Z" fill="white"/>
<path d="M81.2 13.2L76 16.2V22.6V29L81.2 31.9L86.4 34.9L91.5 32L96.5 29.1V22.5V16L91.4 13.1L86.4 10.2L81.2 13.2ZM92.1 16.9C96.7 21.5 96 26.6 90.4 30.1C86.7 32.3 84.7 32.1 80.6 28.9C78.5 27.2 78 26 78 22.4C78 18.5 78.4 17.7 81.3 16C85.7 13.2 88.7 13.5 92.1 16.9Z" fill="white"/>
<path d="M106.2 13.1L101 16.2V22.5V28.8L106.1 31.9L111.1 35.1L116.6 32L122 28.9V22.7C122 17.8 121.6 16.3 120.3 15.4C119.3 14.9 116.9 13.4 115 12.3L111.5 10.1L106.2 13.1ZM116.8 16C119.6 17.8 120 18.5 120 22.5C120 26.6 119.7 27.2 116.1 29.6C111.8 32.4 109.9 32.3 105.6 28.9C103.5 27.2 103 26 103 22.4C103 18.5 103.4 17.7 106.3 16C108 14.9 110.4 14 111.5 14C112.6 14 115 14.9 116.8 16Z" fill="white"/>
<path d="M88 3.19999C88 6.09999 88.7 6.89999 93.4 9.59999L98.8 12.8L104.2 9.59999C108.6 6.89999 109.6 5.89999 109.8 3.19999C110 1.39999 109.7 -1.23978e-05 109.1 -1.23978e-05C108.5 -1.23978e-05 108 0.899988 108 1.89999C108 3.99999 104.2 7.49999 100.8 8.59999C97.4 9.59999 91 6.09999 90.3 2.79999C89.5 -1.00001 88 -0.700012 88 3.19999Z" fill="white"/>
<path d="M159.9 2.4C160.5 3.8 162 6.7 163.4 8.8C166.1 13.1 168.5 14 177.1 14C182.4 14 183.2 14.6 187.2 21.4C190.4 26.7 193 28 200.6 28H206L210.5 35L215 42H224.3C232 42 234 41.7 235.2 40.2C238.1 37 243 27.4 243 25.1C243 23.8 241.6 20.1 239.8 16.9L236.7 10.9L239 6C240.3 3.2 241 0.699999 240.7 0.299999C239.9 -0.500001 240.1 -0.700001 236.3 5.6L233.3 10.6L237.1 17.1C239.2 20.6 240.9 24.1 241 24.8C241 25.6 239.2 29.3 237 33.1L232.9 40H224.5H216.1L211.9 32.5L207.6 25H199.9H192.2L188.3 18.2L184.4 11.5L176 11.2L167.5 10.9L164.5 5.8C161.2 0.199999 158.3 -2 159.9 2.4Z" fill="white"/>
<path d="M165.8 5L168.5 10H176.2H183.8L186.4 5.4C189.5 -0.1 189.5 -1.49012e-07 187.2 -1.49012e-07C186.1 -1.49012e-07 184.7 1.4 183.7 3.5L182 7.1L175.7 6.8C169.8 6.5 169.4 6.3 168 3.3C167.2 1.5 165.7 -1.49012e-07 164.8 -1.49012e-07C163.2 -1.49012e-07 163.3 0.6 165.8 5Z" fill="white"/>
<path d="M188.5 5.39998L185.6 10.7L189.5 17.4L193.5 24.1L200.9 23.8L208.3 23.5L212.2 17.1L216.1 10.6L214.4 7.39998C210 -0.700025 205.9 -3.00002 209.9 4.89998C212.6 10.1 212.5 11 209.3 16.5C206.5 21 206.5 21 200.9 21C194.9 21 193.6 20.2 190.7 14.4C189.2 11.5 189.3 11 191.6 6.09998C194.4 -0.100025 194.4 -2.47732e-05 192.7 -2.47732e-05C192 -2.47732e-05 190.1 2.39998 188.5 5.39998Z" fill="white"/>
<path d="M214.7 4.99998L217.5 10.1L224.9 9.79998L232.4 9.49998L235.2 4.69998C237.5 0.699975 237.7 -2.45646e-05 236.2 -2.45646e-05C235.3 -2.45646e-05 233.7 1.39998 232.8 2.99998C231.2 5.79998 230.8 5.99998 224.6 5.99998C218.4 5.99998 218.1 5.89998 216.8 2.99998C216.1 1.29998 214.8 -2.45646e-05 213.7 -2.45646e-05C212.1 -2.45646e-05 212.2 0.499975 214.7 4.99998Z" fill="white"/>
<path d="M275 9.7C268.8 13.4 268.1 14.6 268 21.5C268 24.8 267.6 28 267.2 28.6C266.8 29.2 264.5 30.9 262 32.5C255.7 36.3 255 37.5 255 44.8C255 52.7 255.8 54.1 261.7 57.4C268.3 61.1 269.8 61.2 276.1 57.8L281.6 54.8L287.8 58C293.4 60.9 294.3 61.1 297 60C298.7 59.3 300 58.1 300 57.4C300 56.2 299.5 56.2 297 57.5C294.1 59 293.8 59 288.2 55.7L282.5 52.4L282.2 45.3L281.9 38.1L286.5 35.4C292.2 32.1 291.7 30.9 286 34.1L281.8 36.5L276.2 33.3L270.5 30.2L270.2 22.7L269.9 15.2L275.6 11.9L281.4 8.6L287.7 12L294 15.4V22.3C294 27.7 293.6 29.6 292.3 30.7C290.6 32.1 290.6 32.1 292.3 31.6C293.3 31.3 295.4 31.7 297.1 32.5C299.3 33.7 300 33.8 300 32.8C300 32.1 299.1 30.9 298 30.2C296.3 29.2 296 27.9 296 22.7C296 15.3 294.8 13.2 288.4 9.6C282.6 6.3 280.6 6.4 275 9.7ZM275.1 34.2L281 37.5V45V52.5L275 55.8L269 59.1L263 55.5L256.9 51.8L257.2 44.7L257.5 37.6L263 34.4C266 32.6 268.6 31.1 268.8 31C269 31 271.8 32.5 275.1 34.2Z" fill="white"/>
<path d="M263.8 35.7L259 38.3V45V51.6L264.3 54.4L269.5 57.2L274.5 54.3L279.5 51.4L279.8 44.9L280 38.5L275 35.7C272.3 34.2 269.7 33 269.2 33C268.8 33 266.4 34.2 263.8 35.7ZM273.7 38C279.7 41.6 279.2 49 272.7 52.5L269 54.5L265.2 52.4C258.8 48.7 258.3 41.9 264.2 38.1C268.3 35.5 269.7 35.5 273.7 38Z" fill="white"/>
<path d="M276.3 13.3L271 16.4V22.6V28.9L276.4 31.9L281.8 35L286.7 32.2L291.5 29.4V22.6V15.9L286.5 13.1L281.5 10.3L276.3 13.3ZM286.8 15.8C290.1 17.9 291.2 20.5 290.5 24.4C290 27 289 28.1 285.7 29.8L281.5 31.9L277.5 29.6C273.7 27.3 273.5 26.9 273.5 22.4C273.5 17.8 273.7 17.4 277.4 15.4C281.4 13.1 282.7 13.2 286.8 15.8Z" fill="white"/>
<path d="M12.3 14.8L6 18.4V24.6C6 28 5.7 31.5 5.4 32.3C5 33.3 6.8 34.9 11.4 37.4C14.9 39.4 18.3 41 18.8 41C19.4 41 22.6 39.4 25.9 37.4L32 33.8V26.1V18.5L25.7 15C22.3 13.1 19.3 11.4 19 11.3C18.7 11.2 15.7 12.8 12.3 14.8ZM24.5 17.6C29 20.2 30.6 23.6 29.6 28.5C29.3 29.6 29.1 31.1 29.1 31.7C29 32.4 26.7 34.1 24 35.5L19 38L15.2 36.1C10.4 33.6 9.3 32.4 8.5 27.8C7.5 22.7 8.6 20.3 12.8 17.5C17.5 14.4 19.2 14.4 24.5 17.6Z" fill="white"/>
<path d="M213.5 18.1C211.6 21.4 210 24.6 210 25.2C210 25.8 211.6 28.9 213.6 32.1L217.1 38H224.8L232.5 37.9L236.2 31.5L239.8 25L236.2 18.5L232.5 12.1L224.8 12H217.1L213.5 18.1ZM233.9 20.1C236.1 24.2 236.2 25 235.1 27.8C232.7 33.6 229.6 36 224.5 36C219.4 36 217.2 34.4 214.5 28.7C213 25.4 213 25 214.5 21.8C217.7 15.5 218.8 14.9 225.4 15.2L231.5 15.5L233.9 20.1Z" fill="white"/>
<path d="M0.300004 26.5C0.200004 35.5 0.300004 35.9 2.1 34.9C3.7 34.1 4 32.8 4 26.7C4 20.1 3 17 1 17C0.600004 17 0.300004 21.3 0.300004 26.5Z" fill="white"/>
<path d="M288.1 35.9L283.8 38.7V45V51.3L289 54.3C294 57.2 294.4 57.2 296.8 55.7C300.8 53.3 300.7 52 296.7 53.2C293.7 54.1 292.7 54 289.6 52.1C286.3 50 286 49.5 286 45C286 40.9 286.4 40 288.8 38.4C290.5 37.2 293.1 36.6 296 36.7L300.5 36.9L298 35C294.7 32.4 293.4 32.6 288.1 35.9Z" fill="white"/>
<path d="M1.7 37.4C-0.899998 39.4 -0.299998 40.7 3 40.2C5 39.9 7.4 40.6 10.5 42.4L15 45.1V51.1V57L10.3 60C6.7 62.3 4.8 62.9 2.8 62.4C-0.599998 61.7 -0.899998 63.2 2.4 64.9C4.5 66.1 5.5 65.8 11.4 62.4L18 58.6V50.9V43.2L11.6 39.6C4.4 35.6 4.2 35.5 1.7 37.4Z" fill="white"/>
<path d="M270.5 98.3L263.5 102.5L263.2 112.2C262.9 123.1 262.7 122.8 271.5 128.4C276.8 131.7 277.8 134 276.6 140.5C276.1 142.9 275 144.2 271.7 146C263.4 150.5 263 151.2 263 161.5C263 169 263.3 171 264.8 172.2C267.7 174.8 277.5 180 279.6 180C280.6 180 284.3 178.6 287.7 176.8C293.2 173.9 294.2 173.6 296.9 174.7C301.1 176.2 301.1 174.1 297 171.8C294 170.1 293.9 170.1 287.5 174C283.9 176.2 280.4 178 279.8 178C279.1 178 275.5 176.2 271.8 173.9L264.9 169.9L265.2 161.2L265.5 152.6L272.3 148.7L279 144.8V137.2V129.5L272 125.6L265 121.6V112.9V104.1L272.5 100L280 95.9L286.8 100L293.7 104.1L296.9 102.3C301.1 99.9 300.8 98.7 296.1 99.5C292.9 100 291.3 99.6 286.8 97.1C283.8 95.4 280.5 94 279.4 94C278.4 94 274.4 96 270.5 98.3Z" fill="white"/>
<path d="M272.8 101.7L267 105.2V113V120.8L273.2 124.5L279.4 128.2L283 126C284.9 124.9 288 123.2 289.8 122.3C293 120.6 293 120.6 293 112.9V105.2L286.5 101.6C282.9 99.6 279.6 98 279.2 98.1C278.8 98.1 275.9 99.8 272.8 101.7ZM285.3 104C290 106.9 290 107 290 112.4C290 118.4 288.4 120.7 282.9 123C279.6 124.4 276.9 123.9 272.3 121C269.2 119.1 269 118.7 269 113C269 107.2 269.1 107 272.8 104.7C276.2 102.5 278.7 101.3 280.1 101.1C280.4 101 282.7 102.3 285.3 104Z" fill="white"/>
<path d="M297.3 103.7C295.2 105.1 295 106.1 295 113C295 120.2 295.1 120.7 297.5 121.8C299.7 122.8 300 122.7 300 121C300 120 299.6 118.8 299 118.5C297.6 117.7 297.7 107.7 299.1 106.3C299.7 105.7 300 104.5 299.8 103.7C299.5 102.4 299.2 102.4 297.3 103.7Z" fill="white"/>
<path d="M286.8 125.7L281 129.2V136.9V144.6L287.5 148.3C293.8 151.9 294.1 152 297 150.5C298.7 149.6 300 148.3 300 147.5C300 145.7 299.8 145.7 296.7 147.1C294 148.3 289 146.6 285.1 142.9C282 140 282.2 133.7 285.5 130.4C289.1 126.8 293.9 125 296.8 126.1C300.3 127.4 300.9 126.2 298 124C294.7 121.4 293.5 121.6 286.8 125.7Z" fill="white"/>
<path d="M1.8 127.7C0.8 127.9 0 128.8 0 129.6C0 131.3 0.5 131.3 2.8 129.9C4.2 129 5.9 129.6 11.8 133L19 137.2L26.1 133.1L33.1 129L40.5 133.3L47.9 137.5L48 146.1V154.6L40.9 158.7L33.8 162.8L33.6 170.6L33.5 178.4L27.1 182.2C18.9 186.9 18.7 187.2 19.5 190.9C20.3 194.5 22 195.1 22 191.7C22 188.6 22.7 187.8 29.2 183.7C35.4 179.8 35.8 178.9 36.2 170C36.5 164.6 36.6 164.5 41.5 161.4C50.1 155.9 50 156.1 50 146.1C50 137.4 49.9 137.1 47 134.7C45.4 133.3 41.6 131 38.5 129.5L33 126.8L27.1 129.9C19.7 133.7 18 133.7 11 130C5.5 127 4.9 126.9 1.8 127.7Z" fill="white"/>
<path d="M1.7 132.1C-0.900001 133.6 -0.400001 135.1 2.5 134.4C5.7 133.6 13.5 138.1 14.4 141.2C15.2 144.3 15.1 150.3 14.2 151.6C12.8 153.9 6.4 157 3.3 157C-0.500001 157 -0.900001 158.2 2.3 159.9C4.3 160.9 5.4 160.6 11.2 157.3L17.9 153.5L18 146V138.5L11.5 134.7C4.5 130.7 4.3 130.6 1.7 132.1Z" fill="white"/>
<path d="M26.2 134.8L20 138.5L20.2 146.3L20.5 154.1L27 157.7L33.5 161.3L39.8 157.6L46 153.9V146.2V138.4L39.7 134.7C36.2 132.7 33.1 131 32.9 131C32.7 131.1 29.7 132.8 26.2 134.8ZM43.2 140.4C44.4 142.2 44.1 150.5 42.8 152.2C42.1 153.1 39.8 154.7 37.7 155.8C33.3 158.1 29.9 157.5 25.6 153.5C23.5 151.5 23 150.2 23 146C23 140.4 24.8 137.8 30.3 135.5C33.2 134.3 33.9 134.4 38 136.7C40.5 138.2 42.8 139.8 43.2 140.4Z" fill="white"/>
<path d="M273.3 149.9L267 153.5V161.5L267.1 169.5L273.4 173.1L279.7 176.7L286.4 172.8L293 168.9V161.2V153.5L286.2 149.9L279.5 146.3L273.3 149.9ZM285.3 153C290 155.9 290 156 290 161.5C290 166.8 289.9 167.1 285.8 170C280.8 173.7 278.6 173.7 273.5 170.2C269.8 167.6 269.5 167 269.2 162.1C268.9 156.2 269.7 154.8 274.9 152C279.6 149.5 279.8 149.5 285.3 153Z" fill="white"/>
<path d="M297.3 152.3C295.2 153.2 295 154 295 161C295 168.2 295.2 168.9 297.5 170.4C299.9 172 300 172 300 169.6C300 168.2 299.6 166.8 299 166.5C297.7 165.7 297.7 157.7 299.1 156.3C299.7 155.7 300 154.3 299.8 153.3C299.6 151.6 299.1 151.4 297.3 152.3Z" fill="white"/>
<path d="M12 158.6L6.5 162L6 169.6L5.5 177.3L9 179.5C10.9 180.7 13.9 182.5 15.6 183.4L18.7 185.2L25.3 181.4L32 177.6V170V162.4L25.5 158.7C22 156.7 18.7 155 18.3 155.1C17.9 155.1 15 156.7 12 158.6ZM24.5 161.3C28.4 163.5 28.5 163.7 28.8 169.7C29.1 175.8 29.1 175.9 25.3 178.4C20.6 181.6 18.8 181.6 13.3 178.4L8.9 175.9L9.2 169.7C9.5 164 9.7 163.4 12.9 161.3C17.1 158.4 19.4 158.4 24.5 161.3Z" fill="white"/>
<path d="M163.4 158.1C153.4 163.4 153 164 153 174C153 183.7 153.4 184.5 160.1 188.3C162.6 189.7 165.2 191.6 166 192.4C167.6 194.4 170 194.5 170 192.6C170 191.8 166.6 189.3 162.5 186.9L154.9 182.6L155.2 174.1L155.5 165.6L162.7 161.3L169.9 157.1L177 161.1L184 165.2L191.1 161.1C195 158.8 198.4 157 198.6 157C198.8 157 201.9 158.8 205.5 161C209.1 163.2 212.3 165 212.7 165C213 165 216.4 163.2 220.3 161L227.2 157L234.4 161.3L241.5 165.6L241.8 174.1L242.1 182.6L234.5 186.9C230.4 189.3 227 191.8 227 192.6C227 194.5 229.4 194.4 231.1 192.4C231.8 191.6 234.1 190 236.2 188.9C243.3 185.3 244 184 244 174.6C244 164.5 243 162.8 233.6 158L227 154.7L220 158.4L213 162L205.6 158.3L198.1 154.6L192.1 157.8C184.8 161.6 182.8 161.7 177.3 158.6C170.6 154.8 169.8 154.7 163.4 158.1Z" fill="white"/>
<path d="M78.5 159.3L73.5 162.5L73 169.5C72.4 177.7 72 178.4 67.2 180.9C61.7 183.7 59.8 186.3 60.4 190C61.1 194.7 62 194.9 62 190.4C62 186.6 62.3 186.3 67.6 183.2C70.7 181.4 73.5 180 74 180C74.5 180 77.3 181.4 80.4 183.2C85.5 186.1 85.9 186.7 86.3 190.4L86.7 194.5L86.8 190.5C87 186.8 87.4 186.3 92.1 183.7C94.9 182.1 96.9 180.6 96.6 180.3C96.4 180 94 181 91.3 182.5L86.5 185.2L80.2 181.6L74 177.9V171.2V164.4L80.2 160.8L86.5 157.1L92.5 160.5L98.5 163.8L98.8 170.5C99 174.6 98.6 177.7 97.9 178.6C97 179.7 97.1 180 98.4 180C99.3 180 102.5 181.4 105.5 183.1C110.7 186 111 186.4 111 190.1C111 192.2 111.5 194 112 194C112.6 194 113 192.3 113 190.2C113 186 111.4 184.1 104.8 180.1C100.9 177.8 100.3 176.2 99.8 167C99.5 162.8 99.1 162.3 94.6 159.2C88.4 155.1 84.9 155.1 78.5 159.3Z" fill="white"/>
<path d="M80.8 162.2L76 165.2V171.4V177.6L81.3 180.6L86.6 183.7L91.8 180.7L97 177.8V171.4V165L92.3 162C89.6 160.4 87.1 159.1 86.5 159.1C86 159.1 83.4 160.5 80.8 162.2ZM91 164C94.8 166 95 166.2 95 170.9C95 175.4 94.7 176 91.6 177.9C87.4 180.5 85.6 180.5 81.3 177.9C78.1 175.9 77.9 175.5 78.2 171.2C78.5 167.2 79 166.3 81.9 164.3C86 161.5 86.1 161.5 91 164Z" fill="white"/>
<path d="M163.3 162.8L157 166.4V174.1V181.8L163.3 185.5L169.5 189.2L176 185.7L182.5 182.1L182.8 174.3L183.1 166.5L176.6 162.7C173 160.7 170 159 169.8 159C169.6 159.1 166.7 160.7 163.3 162.8ZM176.3 165.6C180.1 168.1 180.1 168.2 179.8 174.3L179.5 180.4L174.7 183.2L169.9 186L165.1 183.5C159.9 180.9 159 179.6 159 174.5C159 169.7 159.8 168.2 163.9 165.5C168.5 162.3 171.6 162.4 176.3 165.6Z" fill="white"/>
<path d="M191.3 162.8L185 166.4V174V181.5L191.3 185C194.7 186.9 198 188.5 198.5 188.5C199.1 188.5 202.3 186.9 205.7 185L212 181.5V174V166.5L205.4 162.7C201.8 160.7 198.5 159 198.1 159C197.8 159.1 194.7 160.7 191.3 162.8ZM204.6 165.2C208.3 167.4 209.7 171.5 208.6 177.3C208.1 179.8 207 181.2 204.1 182.8C199.3 185.5 197.4 185.5 193 182.9C188.4 180.1 188 179.4 188 173.9C188 168.8 189 167 194 164.1C197.7 161.9 199.2 162 204.6 165.2Z" fill="white"/>
<path d="M220.2 162.8L213.9 166.5L214.2 174.3L214.5 182.1L221 185.7L227.5 189.2L233.8 185.5L240 181.8V174.1V166.4L233.5 162.7C230 160.7 227 159 226.8 159C226.6 159.1 223.7 160.8 220.2 162.8ZM233 165.2C237 167.6 238 169.3 238 174.7C238 179.6 237.1 180.9 231.8 183.6L226.8 186.1L222.1 183.3C217.5 180.4 217.5 180.4 217.2 174.3C216.9 168.2 216.9 168.1 220.7 165.6C225.3 162.4 228 162.3 233 165.2Z" fill="white"/>
<path d="M0 170.5C0 179.8 0.1 180 2 178.8C3.7 177.7 4 176.4 4 169.9C4 162.6 3.4 161 0.4 161C0.2 161 0 165.3 0 170.5Z" fill="white"/>
<path d="M2.2 180.7C-0.799995 182.8 -0.599995 184.3 2.7 183.6C6.4 182.8 14.7 187.9 15.6 191.5C16.5 195.1 18 194.6 18 190.6C18 187 18.3 187.2 7.8 181.1C4.80001 179.4 4.3 179.3 2.2 180.7Z" fill="white"/>
<path d="M69.2 184.1C64.3 186.8 64 187.3 64.1 190.8L64.2 194.5L65.1 191.5C66 188.3 70.4 185 73.8 185C77.4 185 82.1 188.3 82.7 191.2C83.5 195 85 194.7 85 190.7C85 188.7 84.3 187.1 83.3 186.4C82.3 185.9 79.9 184.4 78 183.2L74.4 181.1L69.2 184.1Z" fill="white"/>
<path d="M93.3 184.3C88.7 187.1 88 187.9 88 190.7C88 192.5 88.5 194 89 194C89.6 194 90 193.1 90 192.1C90 189.6 95.9 185 99 185C102.6 185 108 189.1 108 191.7C108 193 108.5 194 109 194C109.6 194 110 192.5 110 190.7C110 187.9 109.4 187.2 104.8 184.5C101.9 182.8 99.3 181.4 99 181.3C98.7 181.3 96.1 182.6 93.3 184.3Z" fill="white"/>
<path d="M177.3 186.8C173.5 189.1 171 191.2 171 192.2C171 194.4 173.6 194.6 174.3 192.5C175 190.9 182.1 187 184.6 187C187.1 187 194 191.2 194 192.7C194 193.4 194.9 194 196 194C200.2 194 198 190.5 191.7 187C188.3 185.1 185.1 183.4 184.5 183.3C184 183.2 180.7 184.7 177.3 186.8Z" fill="white"/>
<path d="M205.3 186.9C199 190.5 196.9 194 201 194C202.1 194 203 193.4 203 192.7C203 191.1 210 187 212.5 187C214.8 187 223 191.8 223 193C223 193.6 223.7 194 224.5 194C225.3 194 226 193.2 226 192.2C226 190.6 214.3 182.8 212.3 183.1C211.9 183.2 208.7 184.8 205.3 186.9Z" fill="white"/>
</g>
<defs>
<clipPath id="clip0_2_2">
<rect width="300" height="194" fill="white"/>
</clipPath>
</defs>
</svg>
