<?xml version="1.0" standalone="no"?>
<!DOCTYPE svg PUBLIC "-//W3C//DTD SVG 20010904//EN"
 "http://www.w3.org/TR/2001/REC-SVG-20010904/DTD/svg10.dtd">
<svg version="1.0" xmlns="http://www.w3.org/2000/svg"
  className="fixed inset-0 w-full h-full fill-current text-white"
 width="100%" height="100%" viewBox="0 0 700.000000 194.000000"
 preserveAspectRatio="xMidYMid meet">
<metadata>
Created by potrace 1.10, written by Peter Selinger 2001-2011
</metadata>
<g transform="translate(0.000000,194.000000) scale(0.100000,-0.100000)"
fill="#ffffff" stroke="none">
<path d="M150 1902 c0 -25 -7 -45 -17 -54 -34 -29 -85 -50 -109 -44 -31 8 -31
-11 0 -25 20 -10 34 -6 90 26 l66 37 0 49 c0 37 -4 49 -15 49 -11 0 -15 -11
-15 -38z"/>
<path d="M200 1890 l0 -49 66 -39 67 -39 63 36 63 36 1 53 c0 28 -4 52 -10 52
-5 0 -10 -14 -10 -31 0 -44 -15 -66 -61 -90 -35 -18 -45 -19 -71 -8 -57 23
-78 47 -78 90 0 28 -4 39 -15 39 -11 0 -15 -12 -15 -50z"/>
<path d="M480 1885 l0 -54 -70 -41 -70 -41 0 -77 0 -78 -72 -41 -73 -42 0 -82
0 -83 -73 -43 c-58 -34 -77 -41 -92 -33 -25 13 -30 13 -30 -4 0 -30 51 -28
115 4 90 45 99 58 105 148 l5 77 50 32 c86 56 85 55 85 133 l0 70 46 28 c91
54 94 57 94 123 0 33 -4 59 -10 59 -5 0 -10 -25 -10 -55z"/>
<path d="M848 1908 c-2 -27 -13 -39 -60 -71 -32 -20 -58 -43 -59 -50 -4 -93 1
-150 15 -166 20 -22 97 -61 121 -61 10 0 42 12 72 27 l54 28 53 -29 c63 -34
98 -31 161 12 l40 28 3 87 3 87 -48 30 c-68 42 -73 47 -73 80 0 17 -4 30 -10
30 -5 0 -10 -17 -10 -37 0 -36 -3 -40 -60 -71 l-61 -33 -59 33 c-57 31 -60 35
-60 70 0 46 -18 51 -22 6z m77 -89 l55 -31 0 -73 c0 -79 1 -77 -71 -118 l-45
-26 -62 37 -62 36 0 71 0 70 58 32 c31 18 60 33 65 33 4 0 32 -14 62 -31z
m255 -2 l55 -33 3 -67 3 -67 -63 -39 -62 -40 -60 34 -61 34 0 73 0 73 55 32
c30 18 59 33 65 33 5 0 35 -15 65 -33z"/>
<path d="M812 1808 l-52 -30 0 -64 0 -64 52 -29 52 -30 51 29 50 29 0 66 0 65
-51 29 -50 29 -52 -30z m109 -37 c46 -46 39 -97 -17 -132 -37 -22 -57 -20 -98
12 -21 17 -26 29 -26 65 0 39 4 47 33 64 44 28 74 25 108 -9z"/>
<path d="M1062 1809 l-52 -31 0 -63 0 -63 51 -31 50 -32 55 31 54 31 0 62 c0
49 -4 64 -17 73 -10 5 -34 20 -53 31 l-35 22 -53 -30z m106 -29 c28 -18 32
-25 32 -65 0 -41 -3 -47 -39 -71 -43 -28 -62 -27 -105 7 -21 17 -26 29 -26 65
0 39 4 47 33 64 17 11 41 20 52 20 11 0 35 -9 53 -20z"/>
<path d="M880 1908 c0 -29 7 -37 54 -64 l54 -32 54 32 c44 27 54 37 56 64 2
18 -1 32 -7 32 -6 0 -11 -9 -11 -19 0 -21 -38 -56 -72 -67 -34 -10 -98 25
-105 58 -8 38 -23 35 -23 -4z"/>
<path d="M1599 1916 c6 -14 21 -43 35 -64 27 -43 51 -52 137 -52 53 0 61 -6
101 -74 32 -53 58 -66 134 -66 l54 0 45 -70 45 -70 93 0 c77 0 97 3 109 18 29
32 78 128 78 151 0 13 -14 50 -32 82 l-31 60 23 49 c13 28 20 53 17 57 -8 8
-6 10 -44 -53 l-30 -50 38 -65 c21 -35 38 -70 39 -77 0 -8 -18 -45 -40 -83
l-41 -69 -84 0 -84 0 -42 75 -43 75 -77 0 -77 0 -39 68 -39 67 -84 3 -85 3
-30 51 c-33 56 -62 78 -46 34z"/>
<path d="M1658 1890 l27 -50 77 0 76 0 26 46 c31 55 31 54 8 54 -11 0 -25 -14
-35 -35 l-17 -36 -63 3 c-59 3 -63 5 -77 35 -8 18 -23 33 -32 33 -16 0 -15 -6
10 -50z"/>
<path d="M1885 1886 l-29 -53 39 -67 40 -67 74 3 74 3 39 64 39 65 -17 32
c-44 81 -85 104 -45 25 27 -52 26 -61 -6 -116 -28 -45 -28 -45 -84 -45 -60 0
-73 8 -102 66 -15 29 -14 34 9 83 28 62 28 61 11 61 -7 0 -26 -24 -42 -54z"/>
<path d="M2147 1890 l28 -51 74 3 75 3 28 48 c23 40 25 47 10 47 -9 0 -25 -14
-34 -30 -16 -28 -20 -30 -82 -30 -62 0 -65 1 -78 30 -7 17 -20 30 -31 30 -16
0 -15 -5 10 -50z"/>
<path d="M2750 1843 c-62 -37 -69 -49 -70 -118 0 -33 -4 -65 -8 -71 -4 -6 -27
-23 -52 -39 -63 -38 -70 -50 -70 -123 0 -79 8 -93 67 -126 66 -37 81 -38 144
-4 l55 30 62 -32 c56 -29 65 -31 92 -20 17 7 30 19 30 26 0 12 -5 12 -30 -1
-29 -15 -32 -15 -88 18 l-57 33 -3 71 -3 72 46 27 c57 33 52 45 -5 13 l-42
-24 -56 32 -57 31 -3 75 -3 75 57 33 58 33 63 -34 63 -34 0 -69 c0 -54 -4 -73
-17 -84 -17 -14 -17 -14 0 -9 10 3 31 -1 48 -9 22 -12 29 -13 29 -3 0 7 -9 19
-20 26 -17 10 -20 23 -20 75 0 74 -12 95 -76 131 -58 33 -78 32 -134 -1z m1
-245 l59 -33 0 -75 0 -75 -60 -33 -60 -33 -60 36 -61 37 3 71 3 71 55 32 c30
18 56 33 58 34 2 0 30 -15 63 -32z"/>
<path d="M2638 1583 l-48 -26 0 -67 0 -66 53 -28 52 -28 50 29 50 29 3 65 2
64 -50 28 c-27 15 -53 27 -58 27 -4 0 -28 -12 -54 -27z m99 -23 c60 -36 55
-110 -10 -145 l-37 -20 -38 21 c-64 37 -69 105 -10 143 41 26 55 26 95 1z"/>
<path d="M2763 1807 l-53 -31 0 -62 0 -63 54 -30 54 -31 49 28 48 28 0 68 0
67 -50 28 -50 28 -52 -30z m105 -25 c33 -21 44 -47 37 -86 -5 -26 -15 -37 -48
-54 l-42 -21 -40 23 c-38 23 -40 27 -40 72 0 46 2 50 39 70 40 23 53 22 94 -4z"/>
<path d="M123 1792 l-63 -36 0 -62 c0 -34 -3 -69 -6 -77 -4 -10 14 -26 60 -51
35 -20 69 -36 74 -36 6 0 38 16 71 36 l61 36 0 77 0 76 -63 35 c-34 19 -64 36
-67 37 -3 1 -33 -15 -67 -35z m122 -28 c45 -26 61 -60 51 -109 -3 -11 -5 -26
-5 -32 -1 -7 -24 -24 -51 -38 l-50 -25 -38 19 c-48 25 -59 37 -67 83 -10 51 1
75 43 103 47 31 64 31 117 -1z"/>
<path d="M2135 1759 c-19 -33 -35 -65 -35 -71 0 -6 16 -37 36 -69 l35 -59 77
0 77 1 37 64 36 65 -36 65 -37 64 -77 1 -77 0 -36 -61z m204 -20 c22 -41 23
-49 12 -77 -24 -58 -55 -82 -106 -82 -51 0 -73 16 -100 73 -15 33 -15 37 0 69
32 63 43 69 109 66 l61 -3 24 -46z"/>
<path d="M3 1675 c-1 -90 0 -94 18 -84 16 8 19 21 19 82 0 66 -10 97 -30 97
-4 0 -7 -43 -7 -95z"/>
<path d="M2881 1581 l-43 -28 0 -63 0 -63 52 -30 c50 -29 54 -29 78 -14 40 24
39 37 -1 25 -30 -9 -40 -8 -71 11 -33 21 -36 26 -36 71 0 41 4 50 28 66 17 12
43 18 72 17 l45 -2 -25 19 c-33 26 -46 24 -99 -9z"/>
<path d="M17 1566 c-26 -20 -20 -33 13 -28 20 3 44 -4 75 -22 l45 -27 0 -60 0
-59 -47 -30 c-36 -23 -55 -29 -75 -24 -34 7 -37 -8 -4 -25 21 -12 31 -9 90 25
l66 38 0 77 0 77 -64 36 c-72 40 -74 41 -99 22z"/>
<path d="M2705 957 l-70 -42 -3 -97 c-3 -109 -5 -106 83 -162 53 -33 63 -56
51 -121 -5 -24 -16 -37 -49 -55 -83 -45 -87 -52 -87 -155 0 -75 3 -95 18 -107
29 -26 127 -78 148 -78 10 0 47 14 81 32 55 29 65 32 92 21 42 -15 42 6 1 29
-30 17 -31 17 -95 -22 -36 -22 -71 -40 -77 -40 -7 0 -43 18 -80 41 l-69 40 3
87 3 86 68 39 67 39 0 76 0 77 -70 39 -70 40 0 87 0 88 75 41 75 41 68 -41 69
-41 32 18 c42 24 39 36 -8 28 -32 -5 -48 -1 -93 24 -30 17 -63 31 -74 31 -10
0 -50 -20 -89 -43z"/>
<path d="M2728 923 l-58 -35 0 -78 0 -78 62 -37 62 -37 36 22 c19 11 50 28 68
37 32 17 32 17 32 94 l0 77 -65 36 c-36 20 -69 36 -73 35 -4 0 -33 -17 -64
-36z m125 -23 c47 -29 47 -30 47 -84 0 -60 -16 -83 -71 -106 -33 -14 -60 -9
-106 20 -31 19 -33 23 -33 80 0 58 1 60 38 83 34 22 59 34 73 36 3 1 26 -12
52 -29z"/>
<path d="M2973 903 c-21 -14 -23 -24 -23 -93 0 -72 1 -77 25 -88 22 -10 25 -9
25 8 0 10 -4 22 -10 25 -14 8 -13 108 1 122 6 6 9 18 7 26 -3 13 -6 13 -25 0z"/>
<path d="M2868 683 l-58 -35 0 -77 0 -77 65 -37 c63 -36 66 -37 95 -22 17 9
30 22 30 30 0 18 -2 18 -33 4 -27 -12 -77 5 -116 42 -31 29 -29 92 4 125 36
36 84 54 113 43 35 -13 41 -1 12 21 -33 26 -45 24 -112 -17z"/>
<path d="M18 663 c-10 -2 -18 -11 -18 -19 0 -17 5 -17 28 -3 14 9 31 3 90 -31
l72 -42 71 41 70 41 74 -43 74 -42 1 -86 0 -85 -71 -41 -71 -41 -2 -78 -1 -78
-64 -38 c-82 -47 -84 -50 -76 -87 8 -36 25 -42 25 -8 0 31 7 39 72 80 62 39
66 48 70 137 3 54 4 55 53 86 86 55 85 53 85 153 0 87 -1 90 -30 114 -16 14
-54 37 -85 52 l-55 27 -59 -31 c-74 -38 -91 -38 -161 -1 -55 30 -61 31 -92 23z"/>
<path d="M17 619 c-26 -15 -21 -30 8 -23 32 8 110 -37 119 -68 8 -31 7 -91 -2
-104 -14 -23 -78 -54 -109 -54 -38 0 -42 -12 -10 -29 20 -10 31 -7 89 26 l67
38 1 75 0 75 -65 38 c-70 40 -72 41 -98 26z"/>
<path d="M262 592 l-62 -37 2 -78 3 -78 65 -36 65 -36 63 37 62 37 0 77 0 78
-63 37 c-35 20 -66 37 -68 37 -2 -1 -32 -18 -67 -38z m170 -56 c12 -18 9 -101
-4 -118 -7 -9 -30 -25 -51 -36 -44 -23 -78 -17 -121 23 -21 20 -26 33 -26 75
0 56 18 82 73 105 29 12 36 11 77 -12 25 -15 48 -31 52 -37z"/>
<path d="M2733 441 l-63 -36 0 -80 1 -80 63 -36 63 -36 67 39 66 39 0 77 0 77
-68 36 -67 36 -62 -36z m120 -31 c47 -29 47 -30 47 -85 0 -53 -1 -56 -42 -85
-50 -37 -72 -37 -123 -2 -37 26 -40 32 -43 81 -3 59 5 73 57 101 47 25 49 25
104 -10z"/>
<path d="M2973 417 c-21 -9 -23 -17 -23 -87 0 -72 2 -79 25 -94 24 -16 25 -16
25 8 0 14 -4 28 -10 31 -13 8 -13 88 1 102 6 6 9 20 7 30 -2 17 -7 19 -25 10z"/>
<path d="M120 354 l-55 -34 -5 -76 -5 -77 35 -22 c19 -12 49 -30 66 -39 l31
-18 66 38 67 38 0 76 0 76 -65 37 c-35 20 -68 37 -72 36 -4 0 -33 -16 -63 -35z
m125 -27 c39 -22 40 -24 43 -84 3 -61 3 -62 -35 -87 -47 -32 -65 -32 -120 0
l-44 25 3 62 c3 57 5 63 37 84 42 29 65 29 116 0z"/>
<path d="M1634 359 c-100 -53 -104 -59 -104 -159 0 -97 4 -105 71 -143 25 -14
51 -33 59 -41 16 -20 40 -21 40 -2 0 8 -34 33 -75 57 l-76 43 3 85 3 85 72 43
72 42 71 -40 70 -41 71 41 c39 23 73 41 75 41 2 0 33 -18 69 -40 36 -22 68
-40 72 -40 3 0 37 18 76 40 l69 40 72 -43 71 -43 3 -85 3 -85 -76 -43 c-41
-24 -75 -49 -75 -57 0 -19 24 -18 41 2 7 8 30 24 51 35 71 36 78 49 78 143 0
101 -10 118 -104 166 l-66 33 -70 -37 -70 -36 -74 37 -75 37 -60 -32 c-73 -38
-93 -39 -148 -8 -67 38 -75 39 -139 5z"/>
<path d="M785 347 l-50 -32 -5 -70 c-6 -82 -10 -89 -58 -114 -55 -28 -74 -54
-68 -91 7 -47 16 -49 16 -4 0 38 3 41 56 72 31 18 59 32 64 32 5 0 33 -14 64
-32 51 -29 55 -35 59 -72 l4 -41 1 40 c2 37 6 42 53 68 28 16 48 31 45 34 -2
3 -26 -7 -53 -22 l-48 -27 -63 36 -62 37 0 67 0 68 62 36 63 37 60 -34 60 -33
3 -67 c2 -41 -2 -72 -9 -81 -9 -11 -8 -14 5 -14 9 0 41 -14 71 -31 52 -29 55
-33 55 -70 0 -21 5 -39 10 -39 6 0 10 17 10 38 0 42 -16 61 -82 101 -39 23
-45 39 -50 131 -3 42 -7 47 -52 78 -62 41 -97 41 -161 -1z"/>
<path d="M808 318 l-48 -30 0 -62 0 -62 53 -30 53 -31 52 30 52 29 0 64 0 64
-47 30 c-27 16 -52 29 -58 29 -5 0 -31 -14 -57 -31z m102 -18 c38 -20 40 -22
40 -69 0 -45 -3 -51 -34 -70 -42 -26 -60 -26 -103 0 -32 20 -34 24 -31 67 3
40 8 49 37 69 41 28 42 28 91 3z"/>
<path d="M1633 312 l-63 -36 0 -77 0 -77 63 -37 62 -37 65 35 65 36 3 78 3 78
-65 38 c-36 20 -66 37 -68 37 -2 -1 -31 -17 -65 -38z m130 -28 c38 -25 38 -26
35 -87 l-3 -61 -48 -28 -48 -28 -48 25 c-52 26 -61 39 -61 90 0 48 8 63 49 90
46 32 77 31 124 -1z"/>
<path d="M1913 312 l-63 -36 0 -76 0 -75 63 -35 c34 -19 67 -35 72 -35 6 0 38
16 72 35 l63 35 0 75 0 75 -66 38 c-36 20 -69 37 -73 37 -3 -1 -34 -17 -68
-38z m133 -24 c37 -22 51 -63 40 -121 -5 -25 -16 -39 -45 -55 -48 -27 -67 -27
-111 -1 -46 28 -50 35 -50 90 0 51 10 69 60 98 37 22 52 21 106 -11z"/>
<path d="M2202 312 l-63 -37 3 -78 3 -78 65 -36 65 -35 63 37 62 37 0 77 0 77
-65 37 c-35 20 -65 37 -67 37 -2 -1 -31 -18 -66 -38z m128 -24 c40 -24 50 -41
50 -95 0 -49 -9 -62 -62 -89 l-50 -25 -47 28 c-46 29 -46 29 -49 90 -3 61 -3
62 35 87 46 32 73 33 123 4z"/>
<path d="M0 235 c0 -93 1 -95 20 -83 17 11 20 24 20 89 0 73 -6 89 -36 89 -2
0 -4 -43 -4 -95z"/>
<path d="M22 133 c-30 -21 -28 -36 5 -29 37 8 120 -43 129 -79 9 -36 24 -31
24 9 0 36 3 34 -102 95 -30 17 -35 18 -56 4z"/>
<path d="M692 99 c-49 -27 -52 -32 -51 -67 l1 -37 9 30 c9 32 53 65 87 65 36
0 83 -33 89 -62 8 -38 23 -35 23 5 0 20 -7 36 -17 43 -10 5 -34 20 -53 32
l-36 21 -52 -30z"/>
<path d="M933 97 c-46 -28 -53 -36 -53 -64 0 -18 5 -33 10 -33 6 0 10 9 10 19
0 25 59 71 90 71 36 0 90 -41 90 -67 0 -13 5 -23 10 -23 6 0 10 15 10 33 0 28
-6 35 -52 62 -29 17 -55 31 -58 32 -3 0 -29 -13 -57 -30z"/>
<path d="M1773 72 c-38 -23 -63 -44 -63 -54 0 -22 26 -24 33 -3 7 16 78 55
103 55 25 0 94 -42 94 -57 0 -7 9 -13 20 -13 42 0 20 35 -43 70 -34 19 -66 36
-72 37 -5 1 -38 -14 -72 -35z"/>
<path d="M2053 71 c-63 -36 -84 -71 -43 -71 11 0 20 6 20 13 0 16 70 57 95 57
23 0 105 -48 105 -60 0 -6 7 -10 15 -10 8 0 15 8 15 18 0 16 -117 94 -137 91
-4 -1 -36 -17 -70 -38z"/>
</g>
</svg>
